<?xml version="1.0" encoding="UTF-8" standalone="no"?>
<svg
   xmlns:dc="http://purl.org/dc/elements/1.1/"
   xmlns:cc="http://creativecommons.org/ns#"
   xmlns:rdf="http://www.w3.org/1999/02/22-rdf-syntax-ns#"
   xmlns:svg="http://www.w3.org/2000/svg"
   xmlns="http://www.w3.org/2000/svg"
   width="547.70038"
   height="571.48737"
   id="svg2"
   inkscape:version="1.0.1 (c497b03c, 2020-09-10)"
   version="1.0">
  <defs
     id="defs4" />
  <metadata id="metadata7">
    <rdf:RDF>
      <cc:Work
         rdf:about="">
        <dc:format>image/svg+xml</dc:format>
        <dc:type
           rdf:resource="http://purl.org/dc/dcmitype/StillImage" />
      </cc:Work>
    </rdf:RDF>
  </metadata>
  <g
     inkscape:label="inner borders"
     inkscape:groupmode="layer"
     id="layer1"
     transform="translate(-4.146105,140.7992)"
     style="display:inline">
    <g
       class="kuni"
       id="wakayama"
       transform="translate(231.2465,294.9057)">
      <path
         id="path2460"
         d="M 19.25,-10.75 14.15,-13 v 7 L 13,-4 H 10.4 L 6.65,-1 V 0.75 H 0.4 l -3.15,-2.6 v -2.4 l -1.6,-2.35 4.5,-5.4 v -5 h -2.9 l -1.5,1 h -3.5 l -11.1,1.25 1.85,1.5 v 2 h 1.5 L -18.1,-8 v 1.4 l 1.75,1.25 -1.65,1.85 h -1.25 v 3 l 7.65,5.9 2.85,1 v 1.25 h -1.6 l -0.15,1.1 H -9 v 2.9 l 8.25,3.85 H 1.9 V 17 H 4 l 4.65,-5.75 5.75,-12 4.25,-1.75 v -3 l -1.5,-1 2.1,-1.75 v -2.5" />
    </g>
    <g
       id="satsuma"
       transform="translate(56.7125,367.8375)">
      <path
         id="path3367"
         d="m 18.05,-14.15 v 6.4 h -1.5 L 11.3,-2.9 v 1 l 1.25,2.65 v 3.1 l -3.4,4.4 V 10 h 1.25 v 4.85 l 3.15,2.65 v 2 L 10.9,21 H 8.15 l -1.6,-3.15 -7.4,-1.5 -1.5,-3.6 -1.35,-2 1.6,-1.15 1.5,1.65 H 0.9 L 3.05,7.35 V 2 L -0.6,-1.25 V -3.9 l 1.25,-1 v -8.4 l 1.3,-1.6 h 2.6 l 2.25,-1.85 2.1,2.5 h 2.15 l 1.35,-1.5 h 2.25 l 3.4,1.6" />
      <path
         id="path3369"
         d="m 1.15,-21 v 6.1 l -0.9,0.75 -2.7,-1.1 v -2.25 l 2.6,-3.5 h 1 m -12.7,13.85 -0.75,1 1.35,2 h 2.75 l -1.75,-3 h -1.6 m -1.25,4.5 -2.75,4.4 -2.5,0.5 v -1.5 l 3.25,-3.4 h 2" />
    </g>
    <g
       id="hyuga"
       transform="translate(93.3125,355.1375)">
      <path
         id="path2702"
         d="m 2.85,-25.45 h 2.5 v -1 H 8.2 v 3.4 h 5.65 v -2 h 4.75 v 3.5 l -4.65,4.1 h -1.6 v 3 h 1 v 2.25 H 11.8 L 3.3,7.7 v 4.6 h 1 l -1.25,5.65 c -2.2,2.5 -3.8,5.583333 -4.8,9.25 l -0.05,0.1 -3.15,-1.25 -1.35,-2.35 1.75,-4.4 -4.75,-2 -1.9,-5 h -1.5 l -1.85,-1.1 v -2 h 1.25 V 6.8 l -5.25,-5.05 v -3.2 h 7.75 l 2,-1.6 h 2 V -5.3 l -1.25,-1.4 1.85,-1.75 v -1.85 l -2.5,-1.4 v -4.25 l 1.5,-1.6 h 1.25 l 7.3,-9.75 1.5,1.85" />
    </g>
    <g
       id="higo"
       transform="translate(72.837,334.104)">
      <path
         id="path3592"
         d="m 14.15,-19.6 5.25,5.4 2.4,8 -7.3,9.75 h -1.25 l -1.5,1.6 V 9.4 l 2.5,1.4 v 1.85 l -1.85,1.75 1.25,1.4 v 2.25 h -2 l -2,1.6 H 1.9 l -3.4,-1.6 h -2.25 l -1.35,1.5 h -2.15 l -2.1,-2.5 V 14.8 L -6,12.55 V 10.8 l 2.9,-3.25 v -3 l 3,-2.4 V 0.9 h -4.75 v -1.25 l 4.1,-2.5 V -6.1 l -2.1,-1.25 v -1.6 l -2.9,-2.5 3.4,-1.4 3.1,-4.6 h 2.9 l 5.25,2.85 h 4 v -3.75 l 1.25,-1.25" />
      <path
         id="path3594"
         d="M -7,4.15 V 1.65 L -9,3.8 h -1.5 L -13,5.75 V 8.3 l 1.4,0.75 h 3.1 L -6,5.4 -7,4.15 m -7.1,6.65 0.35,-8 h -3.75 l -3.85,5 v 2.25 l 2.35,1.6 h -2.75 v 2.4 l 1.5,2.1 4.25,-5.35 h 1.9" />
    </g>
    <g
       id="osumi"
       transform="translate(73.679,390.345)">
      <path
         id="path6853"
         d="m 1,-33.4 5.25,5.05 v 2.4 H 5 v 2 l 1.85,1.1 h 1.5 l 1.9,5 4.75,2 -1.75,4.4 h -3 l -1.65,2.5 v 1.5 H 10 l 1.5,3 V -3.2 H 6.75 v 1.75 l -6.25,4 h -2.4 l -1.1,1.6 -1.5,-2.1 3.75,-4 V -3.6 h 1 v -6.25 l -1,-0.25 -0.75,-1.25 V -14.7 H -4 v -2.9 h 2 l 1.25,2.15 h 1.5 L 2.1,-18.6 v -1.35 L -0.75,-21.7 H -4.5 l -1.25,-2.65 v -1 L -0.5,-30.2 H 1 v -3.2" />
      <path
         id="path6855"
         d="m 3.5,17.4 2.5,-3 v -2 h 2.4 v 4.65 l -4,7.5 v 4.1 L 3,29.8 0.65,30.05 v -2 l -1,-1.15 V 25.8 L 3.5,21.9 V 17.4 M -6.1,28.15 -8.6,25.8 h -2.5 l -3.9,2.1 v 2.75 l 2,2.65 4.4,0.1 2.5,-2.75 v -2.5" />
    </g>
    <g
       id="chikugo"
       transform="translate(72.985,314.505)">
      <path
         id="path7744"
         d="m 2.2,-8 6.5,4.25 V 5.1 L 3.45,2.25 H 0.55000001 L -2.55,6.85 -5.95,8.25 V 3.5 L -8.45,0.19999999 C -5.45,-2.2333333 -2.5333333,-4.9666667 0.30000001,-8 H 2.2" />
    </g>
    <g
       id="kozuke"
       transform="translate(334.388,197.9)">
      <path
         id="path1669"
         d="m 6.25,-15.95 3.15,1 v 3.15 l 1.6,1 -1.5,1.1 v 6.15 l 2.9,1 v 1.5 L 10,3.55 V 6.2 l 2.5,2.5 h 4.25 l 2.65,1.75 -2.4,1 H 13.5 L 3.5,8.4 0.4,11.45 v 2.6 h -2.25 l -4,3.15 H -8 l -1.15,3 -2.5,-1.9 v -2 l -1,-1 V 9.55 l 1.4,-1 V 6.7 L -12.9,4.2 h -4.6 l -1.9,-2.25 v -2.5 l 1.4,-2 2.75,-2.25 v -1.65 h 2.6 l 2.15,-1.25 v -1.35 h 4.25 l 1.5,-2.9 h 2.25 v -5.25 l 4.35,-3 3.15,4.25 h 1.25" />
    </g>
    <g
       id="hizen"
       transform="translate(53.9035,316.7565)">
      <path
         id="path1629"
         d="m -25.9,-8.65 -2.25,-0.25 v -1.6 h 2.25 v 1.85 m -2.65,1.15 v 1.6 l -1.75,-1.6 h 1.75" />
      <path
         id="path1631"
         d="m -30.05,-1 v 2.75 h -2 l 1,2 v 2.5 l 1,2 1.4,-2.4 V 2.5 h 2.35 V 0 l -2.1,1.5 v -2.65 h 1.25 v -4.1 l -1.5,2.75 -1.4,1.5" />
      <path
         id="path1633"
         d="m -34.9,4.6 v 1.9 l -2.15,-1.15 v 1.9 L -35.4,9 -33.8,6.85 V 4.6 h -1.1 m -7,4.25 -1.9,-1.75 v 3.4 l 1.15,1.5 -1.75,2 h 2.85 l 1.15,1.5 V 13 h 2.25 v 1.25 h 2.25 V 12.5 l -1.75,-1.75 v -2 l -1.4,-1.4 -1,1.5 h -1.85" />
      <path
         id="path1635"
         d="" />
      <path
         id="path1637"
         d="m 5.6,-16.75 -3,1.35 v 1.5 H 0.7 v -2 l -2.1,-2.15 h -1.9 l -1.6,3.15 h -2.25 v 1.75 h 2.6 v 2.75 h -2.5 l -1.35,-1.5 h -2.65 l -1.6,-1 -1,-1.15 v 1.9 h -2.4 l -3.6,6.5 h 2.35 l 2.65,-2.4 v -1.5 l 2.5,-1.5 v 3 l -1.5,1.75 4.1,2.75 h 2.15 v 2.75 l 0.05,0.05 4.45,1.6 1,1.1 v 4 l 1.35,1.4 V 9.2 h -2.1 V 7.6 H -6.4 V 2.1 H -7.8 V 0.45 h -2.5 v 1.4 l -1.75,1.35 1.25,1.5 v 3.25 l 1.25,1.4 h 1.9 l 1.6,3 -2.75,5.25 h 2 l 4.75,-5.65 h 4.5 v -1 h 3 V 13.7 L 2.7,15.6 v 1.1 l 2.15,1.4 h 2.1 V 16.85 H 8.7 l 2.9,-3 v -2.4 L 9.35,8.2 H 6.6 l -1.25,1 H 3.7 L 2.7,7.95 5.35,6.2 h 1.1 V 4.6 L 4.6,1.1 v -2.5 l 2.25,-1.15 1.35,-1.85 2.5,2.2 c 3,-2.4333333 5.916667,-5.1666667 8.75,-8.2 H 13.7 l -8.1,-4.25 v -2.1" />
    </g>
    <g
       id="chikuzen"
       transform="translate(71.2605,298.37)">
      <path
         id="path3402"
         d="m 0.65,-10.15 -2,2.6 v 2.15 l -2.25,2 v 1.75 L -4.85,-0.4 H -7.5 L -8.75,-2.3 H -10 l -1.85,2 v 4.15 l 8.1,4.25 H 3.9 l 6.5,4.25 V 8.45 L 11.8,7.1 7.25,2.85 v -2.5 l 4.25,-7.4 0.4,-2.6 -2,-2.65 H 6.4 l -1.75,2.15 h -4" />
    </g>
    <g
       id="bunzen"
       transform="translate(88.891,298.341)">
      <path
         id="path5163"
         d="m -1.1,-3 1.5,2.65 c 3.4333333,0.5 6.35,1.7 8.75,3.6 V 6.9 H 10.4 V 9.75 L 8.15,12 H 6 L -2.5,10 -10.4,2.9 V 0.4 l 4.25,-7.4 0.4,-2.6 4.65,-2.4 -1,3 1,6" />
    </g>
    <g
       id="bungo"
       transform="translate(99.834,314.5081)">
      <path
         id="path6051"
         d="M 9.3,-13.85 V -8.1 L 5.8,-5 h -3 L 1.55,-3.35 3.4,-1 h 5.4 v 1.15 h 5 l -2.65,3.25 2.5,1.75 V 6.5 h 3.15 v 1.25 h -2.4 v 3.4 h 3.75 l -3.35,4.6 -2.75,1.65 V 15.65 H 7.3 v 2 H 1.65 v -3.4 H -1.2 v 1 H -3.7 L -5.2,13.4 -7.6,5.4 -12.85,0 -14.1,1.25 V 5 h -4 V -7.75 l 1.4,-1.35 3.35,2.85 8.5,2 H -2.7 L -0.45,-6.5 V -9.35 H -1.7 V -13 h 1.5 l 2.5,-3.5 2.1,-1.1 h 1.9 l 3,3.75" />
    </g>
    <g
       id="iki"
       transform="translate(47.47,289.849)">
      <path
         id="path9579"
         d="m 0.15,-3.2 -2.25,1.5 v 3 l 2,1.9 2.25,-2 v -2.25 l -2,-2.15" />
    </g>
    <g
       id="tsushima"
       transform="translate(37.44117,266.8047)">
      <path
         id="path10467"
         d="m 2.6,-10.6 -2.9,1.4 v 2.85 l 0.4,2 h -1.9 v 4 L -2.25,0.4 1.2,2.65 v -5.1 l 1.75,-2 h 1.5 v -3.5 L 5.7,-9.35 V -10.6 H 2.6" />
      <path
         id="path10469"
         d="m -5.65,5.65 v 4 l 1.85,1 L 0.35,3.8 -4.3,1.9 -5.65,5.65" />
    </g>
    <g
       id="tosa"
       transform="translate(162.004,304.957)">
      <path
         id="path11358"
         d="m 4.1,1.15 -9.5,6.1 -2.9,7.75 -4.1,4.75 h -2.15 V 25 l -1.85,1.4 v 1.25 l 2,1 v 2 h -1.9 l -1.5,-2.25 h -5.1 l -3.15,-1.25 v -2.4 h 2 V 22.9 l -1,-2.4 -1.5,-6.75 h 3 L -18.4,9.5 V 3.4 h 4.5 c 2.1,-5.5333333 5.1833333,-9.75 9.25,-12.65 h 4.6 l 2.25,1.15 1.65,-2.25 5.95,-0.25 6,2.25 1.25,-1 h 2.15 v 4.25 l 3.85,2 v 2.75 L 24.3,1.9 h 2.25 C 24.316667,3.8333333 23,7.3833333 22.6,12.55 L 12.7,2.4 4.1,1.15" />
    </g>
    <g
       id="g176"
       transform="translate(185.349,294.615)">
      <path
         id="path12246"
         d="M 8.65,-11.1 H 0 l -5,3.6 -2.1,-2 -7.4,3.05 -1.6,1.6 v 4.75 h 2.6 l 6,2.25 1.25,-1 H -4.1 V 5.4 l 3.85,2 v 2.75 L 1,12.4 H 3.25 C 5.3833333,9.4 8.7333333,6.5166667 13.3,3.75 L 16.15,2.5 13.65,1 l 1.4,-1.5 v -1.35 l -1.4,-2.4 h -1.5 V -8.6 l 1.9,-2 -1.4,-1.75 h -4 v 1.25" />
    </g>
    <g
       id="sanuki"
       transform="translate(180.1447,278.525)">
      <path
         id="path13134"
         d="M 5.1,-6.35 4.85,-8 H 6.6 l 1.5,-1.5 h 3 v 4.4 H 7.7 L 6.6,-6.35 H 5.1" />
      <path
         id="path13136"
         d="m 4.7,-3.75 0.5,2.35 h 2.5 l 1,0.8 v 1.85 l 5.25,2.4 V 4.9 H 5.3 l -5,3.6 -2.1,-2 -7.4,3.05 h -4.7 L -12.05,7.9 V 4.25 L -13.2,1 l 3,1.4 5,-3.75 v -1.5 l 1.65,-1.5 4.1,2.75 h 2 L 4.7,-3.75" />
    </g>
    <g
       id="iyo"
       transform="translate(144.26,305.841)">
      <path
         id="path14025"
         d="M 13.05,-10.2 C 8.9833333,-7.3 5.9,-3.0833333 3.8,2.45 h -4.5 v 6.1 l -5.15,4.25 h -3 l 1.5,6.75 1,2.4 h -5.1 l -3.65,-5.25 2.25,-1.75 -1.35,-3.9 h 2.35 V 9.45 L -13.6,7.7 -11.7,6.55 h -3.5 V 2.3 l -1.5,-1.6 -5,3.1 -1.15,1.4 H -26.5 L -24,2.05 h 2.9 l 16,-11.5 v -4.85 h 1.6 l 1.4,-4.15 5.1,-3.5 4.75,6.75 h 3.9 l 8.25,-1 1.9,-1.7 h 4.7 l -1.6,1.6 v 4.75 l -3.35,0.25 -1.65,2.25 -2.25,-1.15 h -4.6" />
    </g>
    <g
       id="awaji"
       transform="translate(206.291,275.6264)">
      <path
         id="path14913"
         d="m 3.85,-3.3 1.5,-3.1 -1.5,-0.9 -7.15,7.15 V 1.6 l -2,1.35 V 5.1 l 1.4,2.25 h 3.1 L 0.45,5.85 H 2.2 l 1,-1.5 -2,-1.65 v -3.6 l 2.65,-2.4" />
    </g>
    <g
       id="nagato"
       transform="translate(98.48,274.251)">
      <path
         id="path15801"
         d="M 13.5,-2.85 12.1,-4.7 v -7.9 H 9.2 l -9.35,9.25 h -2.9 V -5.2 h -2.1 v 1.1 h -3.4 l -2,-1 v 2.5 h -3.1 v 3.9 h 1.35 v 2.35 l -2.1,2 1.35,2.15 v 4.6 l 2.85,-2.6 h 2.55 l 2.75,2.85 h 3.85 l 1.65,-2.1 h 1.6 v 1.6 h 2 v -2.1 L 8.85,5.3 V 2.65 h 3.1 L 14.4,0.35 13.5,-0.6 v -2.25" />
    </g>
    <g
       id="suo"
       transform="translate(113.6189,282.9163)">
      <path
         id="path1689"
         d="M 0,-7.55 -0.85,-8.5 -3.3,-6.2 h -3.1 v 2.65 l -4.65,4.75 2.15,2 3.1,-1.65 h 4 v 4.4 h 1.65 l 1.75,-1.5 6,4.35 3.5,-4 V -1.55 L 6.35,-8.8 3.85,-7.55 H 0" />
    </g>
    <g
       id="aki"
       transform="translate(134.9985,268.562)">
      <path
         id="path2577"
         d="m 6.1,-12.85 -4.5,2.25 h -8.75 l -3.35,2.75 -1.15,5.75 -1.35,1.25 v 1.6 l -1.9,1.5 v 3.4 L -10.15,12.9 -8.9,8.5 -4.05,4.85 -1.4,6.5 V 7.85 L 0.95,11 H 5.7 L 9.95,7.1 h 5 V 4.6 l -3,-6.1 -5,-2.4 v -2 l 2.25,-2.35 -3.1,-4.6" />
    </g>
    <g
       id="bingo"
       transform="translate(152.793,261.544)">
      <path
         id="path3465"
         d="m 0.05,-12.95 -1.15,-1 h -5 l -5.6,6.35 v 1.8 l 3.1,4.6 -2.25,2.35 v 2 l 5,2.4 3,6.1 v 2.5 h 2.05 v -1.5 h 4 l 1,-1.6 h 1.1 v 1.85 h 2 L 11.7,9.4 V 6.65 L 7.55,-4.7 v -5.9 l -3.9,-3.55 -1,1.2 h -2.6" />
    </g>
    <g
       id="bichu"
       transform="translate(165.826,258.1118)">
      <path
         id="path4353"
         d="m 0,-12.95 -4.35,4.1 -3.1,0.05 1.95,1.75 v 5.9 l 4.15,11.35 v 2.75 H 2.4 L 7.5,9.1 V 4.7 L 3.4,0.45 v -7.6 L 0,-12.95" />
    </g>
    <g
       id="bizen"
       transform="translate(179.7,264.0025)">
      <path
         id="path5241"
         d="m 9.6,-8.8 -2.85,1.15 -17.25,-0.4 v 2.5 l 4.1,4.25 V 3.1 L -8.95,5.05 V 7.2 h 2.45 v 1.65 h 1.75 L -1.4,7.7 2,3.6 h 3.1 l 5.4,-5.25 -0.9,-3.4 V -8.8" />
    </g>
    <g
       id="mimasaka"
       transform="translate(179.3145,248.145)">
      <path
         id="path6129"
         d="m 13.6,-2.55 v 3.6 L 9.95,4.8 V 7.05 L 7.1,8.2 -10.15,7.8 V 2.7 l -3.4,-5.8 4.4,-4.2 h 10.5 l 0.95,-0.9 2.65,0.75 3.9,4.9 h 4.75" />
    </g>
    <g
       id="harima"
       transform="translate(202.247,255.492)">
      <path
         id="path7017"
         d="m 7.5,-7.75 3.3,4.9 2.35,1.15 -2.6,14.1 L 0.9,5.8 h -2.35 v 1 h -3 V 5.3 h -3.4 l -1.5,1.5 h -2.85 l -0.9,-3.4 v -6 l 3.65,-3.75 v -3.6 l 3.75,-2.4 v 1.5 l 4.35,-0.25 1.75,1.75 h 7.15 l -0.05,1.6" />
    </g>
    <g
       id="iwami"
       transform="translate(125.7867,258.094)">
      <path
         id="path7905"
         d="m 13.9,-15.1 1.35,6.35 v 6.4 l -4.5,2.25 H 2 L -1.35,2.65 -2.5,8.4 -3.85,9.65 v 1.6 l -1.9,1.5 v 3.4 l -2.5,1.25 h -3.85 l -1.75,-1.9 v -2.25 l -1.4,-1.85 V 3.5 h 2.4 l 10.6,-10 5.5,-3.85 h 1.5 L 5.9,-11.5 v -1.1 l 2.35,-3.25 3,-1.5 2.65,2.25" />
    </g>
    <g
       id="izumo"
       transform="translate(149.142,240.962)">
      <path
         id="path8793"
         d="m 7.45,-6.05 h 3.1 l 1.5,3.65 V 0.35 L 6.3,7.6 H 3.7 l -1.15,-1 h -5 l -5.6,6.35 V 8.35 L -9.4,2 -12.05,-0.25 -8.2,-3.4 V -5.05 L -9.55,-6.8 h 3.75 l 2.75,-2.5 H 1.3 l 4.25,-3.6 1.75,2.25 h 4.65 l -2,1.5 H 6.2 l -1.25,1.1 H 0.7 l -1.9,2.4 h 2.25 l 2.4,-1.4 h 2.5 l 1.5,1" />
    </g>
    <g
       id="hoki"
       transform="translate(169.447,240.547)">
      <path
         id="path9681"
         d="m 2.85,-7.65 -3.1,-1 h -3.5 L -5.4,-5.8 H -6.75 L -9.5,-7.9 h -1.65 l 1.35,2.35 1.5,3.65 V 0.85 L -13.05,6.9 -11.1,8.7 -8,8.65 0.75,0.35 h 10.5 L 13.1,-1.4 v -2.25 l -2.75,-4 h -7.5" />
    </g>
    <g
       id="oki"
       transform="translate(157.001,207.665)">
      <path
         id="path10569"
         d="M 7.15,-0.95 4.75,0.55 3.15,0.2 0.75,-1.3 v -2.65 l 2.5,-3 3.9,3.15 v 2.85" />
      <path
         id="path10571"
         d="M -3,1.45 V 5.8 L -0.25,3.2 -3,1.45 m -1.1,-0.25 -1,0.35 v 2.3 l 1,0.95 V 1.2 m -2,0.7 v 3.25 l -1,-0.95 v -2 l 1,-0.3 m 1,5.05 h 2.25 L -4.35,5.8 -5.1,6.55 v 0.4" />
    </g>
    <g
       id="inaba"
       transform="translate(188.2649,237.355)">
      <path
         id="path11460"
         d="m 6.45,-4.4 2,5.4 V 5.85 L 4.7,8.25 H -0.05 L -3.95,3.35 -6.6,2.6 -5.7,1.75 V -0.5 l -2.75,-4 1.9,-1.25 2.5,1.5 1.25,-1 h 3.25 l 4,-3 h 2 v 3.85" />
    </g>
    <g
       id="tajima"
       transform="translate(204.974,236.921)">
      <path
         id="path12348"
         d="M 3.05,-3.6 6.3,-2.1 H 9.05 L 10.3,-0.25 5.05,4 4.95,9.25 H -2.2 L -3.95,7.5 -8.3,7.75 V 1.4 l -2,-5.4 v -3.85 l 3.1,-1.4 1.5,1 h 8.75 v 4.65" />
    </g>
    <g
       id="tanba"
       transform="translate(221.057,246.771)">
      <path
         id="path13236"
         d="m 11.2,-6.3 v 7 L 6.1,10.1 H 3.35 l -3.5,-3 h -5.4 l -2.35,-1.15 -3.3,-4.9 0.05,-1.6 0.1,-5.25 5.25,-4.25 2.9,3.9 h 1.6 l 5.5,-3.65 7,3.5" />
    </g>
    <g
       id="tango"
       transform="translate(217.417,232.37)">
      <path
         id="path14124"
         d="M 0.2,-0.7 3.7,2.55 7.95,-1.7 9.45,0.55 7.8,1.95 v 2.6 L 2.3,8.2 H 0.7 L -3.45,2.45 H -6.2 L -9.45,0.95 V -3.7 h 2.15 l 3.85,-3.6 h 2.25 v -0.9 h 4 l 1.15,2.9 -3.75,4.6" />
    </g>
    <g
       id="settsu"
       transform="translate(221.158,261.412)">
      <path
         id="path15012"
         d="M 5.9,-4.65 H 3.15 l -3.5,-3 h -5.4 l -2.7037844,14.3075688 5.75,-3.35 L 0.65,3.1 3,5.6 v 2.1 h 3.4 l 2,-8.1 v -2.65 l -2.5,-1.6" />
    </g>
    <g
       id="izumi"
       transform="translate(219.99,274.61)">
      <path
         id="path15900"
         d="m 7.65,-5.5 h -3.4 v 2.15 L 0.75,0.5 -7.6,5.5 3.5,4.25 6.75,-1.1 7.65,-5.5" />
    </g>
    <g
       id="g19455"
       transform="translate(235.1505,273.3681)" />
    <g
       id="yamato"
       transform="translate(237.541,280.007)">
      <path
         id="path22124"
         d="M 9.7,-8.85 H 5.6 v -4.9 l -1.15,-1 h -6.1 l -2.65,-1 -3.1,5 v 2.25 l 1.25,1.25 V 3 l -4.5,5.4 1.6,2.35 v 2.4 l 3.15,2.6 H 0.35 V 14 L 4.1,11 h 2.6 l 1.15,-2 0.1,-9.85 h -1.6 v -3.4 H 7.7 l 3,-2 -1,-2.6" />
    </g>
    <g
       id="yamashiro"
       transform="translate(235.25,253.309)">
      <path
         id="path23012"
         d="m 0.45,-12.85 h -3.5 v 7 l -5.1,9.4 2.5,1.6 3.6,5.75 2.65,1 h 6.1 l 1.15,1 v -2 l 0.35,-3 h -1 L 2.35,5.3 1.2,2.4 v -6 h 1.25 v -7.1 l -2,-2.15" />
    </g>
    <g
       id="kawachi"
       transform="translate(228.304,268.898)">
      <path
         id="path23921"
         d="M 3.0454128,9.0103211 3.1834965,3.8726039 1.9849668,2.5113885 2.0138275,0.20348068 4.9,-4.5 1.5075688,-9.8348624 1.3,-7.6 -0.68493811,-0.19173449 -1.5072271,4.33775 -4.7405049,9.9594612 -1.351934,10.041328 0.25307337,8.936706 2.9786697,9.0830275" />
    </g>
    <g
       id="wakaza"
       transform="translate(234.324,235.25)">
      <path
         id="path30926"
         d="m 9.15,-0.15 -5.6,4.1 H 1.4 V 5.2 h -3.5 l -7,-3.5 v -2.6 l 1.65,-1.4 1.25,1.5 h 2.35 v 1.25 h 3.5 l -1.35,-2.1 v -1 h 1.75 l 1.25,1.5 1.6,-1.65 v -2.35 h 2.15 v 1.1 h 4.1 v 3.9" />
    </g>
    <g
       id="echizen"
       transform="translate(254.8945,220.342)">
      <path
         id="path31814"
         d="m 10.8,-2 2.65,3 v 1.85 l -2.5,1.65 h -12 L -4,8.25 h -3.15 v 3.25 l -4.25,3.25 v -3.9 h -2.05 v -5.1 h 2.05 V 8.6 h 2.25 V 3.75 l -3.4,-2.5 v -5.9 l 5.25,-8.6 3.25,-1.5 2.4,2.25 v 2.6 l 2.75,1.5 h 2.85 l 2.9,2 H 10.8 V -2" />
    </g>
    <g
       id="kaga">
      <path
         d="m 269.595,184.718 v 2.4 l -2.65,4 v 5.75 h 1.25 v 2.6 l -1.6,1.25 v 5.25 l 1.35,1 v 3.15 l -2.3,3.85 h -3.95 l -2.9,-2 h -2.85 l -2.75,-1.5 v -2.6 l -2.4,-2.25 1.55,-1.5 v -1 h 2.1 l 4,-5.75 4.15,-5 4,-9.25 3,1.6"
         id="pathkaga" />
    </g>
    <g
       id="tono"
       transform="translate(274.381,171.737)">
      <path
         id="path2669"
         d="M 2.8,-2.05 -0.15,1.7 -2.9,-0.15 -4.55,3.95 V 5.6 l 2.9,1.25 2.6,-2 v 5.1 h -3 l -2.7,3 -3,-1.6 V 9.1 L -9.4,7.1 V 3.6 l -0.9,-0.5 v -3.4 h 1 v -3.85 l 4.5,-2.75 h 4.15 l 4.75,-3.5 h 4.75 l 1.5,1.5 v 1.75 H 7.45 V -4.6 L 5.1,-2.05 H 2.8 M -2.5,4.7 V 3.2 h 2.75 l -1,1.5 H -2.5" />
    </g>
    <g
       id="etchu"
       transform="translate(281.234,194.586)">
      <path
         id="path3557"
         d="m 10.2,-13.35 h 2.35 l 2.15,4.4 V 0.8 L 9.8,8.9 h -2 L 4.45,6.9 H -2.9 l -3.65,3.65 -1.25,2.85 h -1.9 v -2.6 h -2.5 l -1.75,1.1 -0.7,-0.5 V 6.15 l 1.6,-1.25 V 2.3 h -1.25 v -5.75 l 2.65,-4 v -2.4 l 2.7,-3 h 3 v 1.4 l -1.5,1 v 2.1 l 4.15,3.4 h 3.85 l 3.9,-2.5 v -3.65 l 5.75,-2.25" />
    </g>
    <g
       id="echigo"
       transform="translate(325.9618,155.9879)">
      <path
         id="path4445"
         d="m 21.6,-33.2 -2.15,5.25 -1.35,8.15 -3.5,6.35 -9.4,4.25 -4.85,4.65 -1.75,5.75 -5.15,9.25 -9.35,6.5 v 1.5 h -4.75 l -4,3.6 -7.5,3.25 2.15,4.4 v 3.5 l 1.95,-2.15 v -3.1 h 5 l 1.5,2.25 h 6.5 l 5.65,-6.9 h 2.85 l 1.9,1.25 v 2.9 l 1.5,1.6 v 3.9 H 2.1 l 1.5,-2.9 H 5.85 V 24.8 l 4.35,-3 3.15,4.25 H 14.6 V 21.7 l -1.4,-5.15 h -1.25 v -4.5 L 13.2,11.8 V 6.75 l 1.25,-0.8 h 3.25 l 1.5,-1.5 h 4.75 v -4.5 l 3.4,-4.65 -3.4,-4 1.75,-4.1 v -5.9 l 1.75,-1.85 h 2.5 l 2.25,-1.75 -3,-3.65 h -1.75 v -3.85 l -5.85,-3.4" />
    </g>
    <g
       id="sado"
       transform="translate(314.1554,140.9142)">
      <path
         id="path5333"
         d="m 1.45,-3.3 v 2.9 h 3 l 1,1 -2,4.1 -3,2.9 -3.25,2.1 H -5.45 V 8.2 L -3.2,6.45 -1.8,3.7 -3.05,1.95 -4.7,3.45 v -5.1 l 5.15,-6.4 1.75,-1.6 h 1.5 v 2.1 L 1.45,-3.3" />
    </g>
    <g
       id="iga"
       transform="translate(246.38,266.511)">
      <path
         id="path6236"
         d="m 1.3,-7.3 h -3.25 l -1,2.1 -0.35,3 v 6.9 h 4.1 l 1,2.6 1.5,-5.85 v -6 l -2,-2.75" />
    </g>
    <g
       id="ise"
       transform="translate(254.5832,265.1692)">
      <path
         id="path7124"
         d="m 6.3,-18.85 -1.35,-1.4 H 2.8 l -1.75,1.9 v 5.25 l -4.75,7 h -3.25 l 2,2.75 v 6 l -1.5,5.85 -3,2 h -1.35 v 3.4 h 1.6 l -0.1,2.85 5.1,2.25 v 1.25 l 8.15,-4.1 3.85,-1.4 3,-3.5 V 7.5 L 4.05,2.9 V 0.55 h -1.1 v -1.9 l 5,-7 2.1,-4.5 L 7.45,-16 H 6.3 v -2.85" />
    </g>
    <g
       id="shima"
       transform="translate(266.206,277.451)">
      <path
         id="path8012"
         d="m 2.05,-4.8 h -2.9 v 3.75 l -3,3.5 h 2.75 v 2.4 h 3.65 v -4 L 3.9,-0.8 V -2.9 H 2.05 v -1.9" />
    </g>
    <g
       id="owari"
       transform="translate(272.198,253.126)">
      <path
         id="path8900"
         d="m 8.9,-9 h -7 v -3.25 H -3 l -4.25,1.75 v 1.85 l -1.6,1.15 0.05,5.15 1.3,1.6 h 3.65 V 0.5 L -5,1.5 v 4.25 h 1.25 v 4.75 l 2.5,1.75 v -7 L 1.9,0.5 4.4,-1 V -3.15 L 8.9,-9" />
    </g>
    <g
       id="mikawa"
       transform="translate(284.3443,257.078)">
      <path
         id="path9788"
         d="M 5.95,-13.25 V -10 H 9.6 v -1.4 h 2.6 l 1.25,1.5 V -8 l -6.1,10.75 -3.5,1.6 v 5 l -11.9,3.9 h -3.25 v -1.4 L -8.65,9.5 h 3.6 l 4.25,-2 v -2 l -1,-1.15 h -3.6 v 1 h -4.75 L -13.4,3 V 1.25 l 3.15,-4.75 2.5,-1.5 v -2.15 l 4.5,-5.85 5.6,2.6 3.6,-2.85" />
    </g>
    <g
       id="totomi"
       transform="translate(300.019,254.898)">
      <path
         id="path10676"
         d="m 6.65,-14.2 -8.9,6.5 v 1.9 l -6.1,10.75 -3.5,1.6 v 5 l 2.1,-4.1 h 2.15 l -1.5,2.5 2.35,1.85 h 10.5 l 6.5,2.4 V 10.45 L 11.9,8.7 H 9.5 L 8,3.55 v -1.6 h 0.9 v -10.9 l -2.25,-2 v -3.25" />
    </g>
    <g
       id="suruga"
       transform="translate(320.698,246.993)">
      <path
         id="path11564"
         d="M 14.05,-5.8 8.9,-8.55 v 1 l -5.5,1.25 -2.1,-2 h -1.75 v 7.4 L -2.2,0.35 H -4.1 L -7.7,-4.9 h -2.5 v -3.75 h 1.1 v -3.65 l -2.35,-4.25 -2.6,10.25 v 3.25 l 2.25,2 v 10.9 h -0.9 v 1.6 l 1.5,5.15 h 2.4 L -5.45,9.95 -1.6,7.1 V 5.45 L 2.05,2.6 h 5 l 2.5,2 3.85,-4.5 -1.1,-1.25 v -2 l 1.75,-2.65" />
    </g>
    <g
       id="izu"
       transform="translate(331.799,257.791)">
      <path
         d="m 2.3,-10.65 -3.85,4.5 v 1.5 H -5.2 V 6.1 h -1.1 v 2 l 2.85,2.6 h 2.4 L 1.8,7.85 5.05,0.95 H 6.3 v -3.5 l -1.5,-1.5 v -4.1 l -2.5,-2.5"
         id="path12452" />
    </g>
    <g
       id="sagami"
       transform="translate(343.0075,239.198)">
      <path
         id="path13340"
         d="m -5.25,-5.75 -8.15,5 L -8.25,2 -10,4.65 v 2 L -6.4,10.4 -5,8.9 V 6.65 l 6.65,-4.4 h 4.6 L 8.4,3.9 9.9,7.4 V 9.65 H 11 v -3.5 l 2.4,-1.5 V 3.5 H 10.75 V 0 h -1.6 l -5.65,-5.85 -8.75,-4.5 v 4.6" />
    </g>
    <g
       id="kai"
       transform="translate(323.511,232.885)">
      <path
         id="path14228"
         d="m 1.6,-12.25 -1.75,1.85 H -2 v -1.5 h -3.9 l -2.35,-2.6 H -9.4 l -1.5,3.6 h -1.85 l -1.5,3 v 5.5 l 2.35,4.25 V 5.5 H -13 v 3.75 h 2.5 l 3.6,5.25 H -5 l 1.75,-1.25 v -7.4 h 1.75 l 2.1,2 5.5,-1.25 v -1 l 8.15,-5 V -4 l -5.15,-2.25 -3,-4.4 -4.5,-1.6" />
    </g>
    <g
       id="musashi"
       transform="translate(343.426,222.721)">
      <path
         d="M 17.45,-2.55 V 4.1 L 18.2,5.35 V 7.7 h -4.15 v 2.75 l -3.6,2.65 v 3.35 H 8.85 L 3.2,10.6 -10.7,3.85 l -3,-4.4 -4.5,-1.6 v -2.5 l 1.15,-3 h 2.15 l 4,-3.15 h 2.25 v -2.6 l 3.1,-3.05 10,3.05 h 3.5 l 2.4,-1 5.35,11.85 h 1.75"
         id="path15116" />
    </g>
    <g
       id="awa"
       transform="translate(365.507,251.0544)">
      <path
         id="path16004"
         d="M 4.2,-2.4 -1.4,1.35 V 4.1 l -2.4,2.25 h -2.5 l -2.25,-4 h 3.15 l -1.9,-2 1,-2 -1.25,-1 v -2.5 l 2.15,-1.2 v 1.45 h 4.1 v -1 H 3.35 L 8.6,-3.75 4.2,-2.4" />
    </g>
    <g
       id="kazusa"
       transform="translate(369.9664,236.9398)">
      <path
         id="path16892"
         d="M 3.05,-5.05 0.9,-4 H -2.9 L -8.35,0.55 V 1.7 l -3.4,2.6 v 2.15 h 1.9 V 9.3 h 4.1 v -1 H -1.1 L 4.15,10.45 6.3,8.45 7.05,6.2 V 3.05 h -1 V -0.3 l 2.6,-4.9 3.15,-2.85 -3.65,-2.4 h -2.6 l -2.5,5.4" />
    </g>
    <g
       id="shimosa"
       transform="translate(371.931,219.293)">
      <path
         id="path17780"
         d="M -18.15,-10.95 -12.8,0.9 h 1.75 v 6.65 l 0.75,1.25 h 2.25 l 3.75,3.25 v 1.1 l -0.55,0.45 h 3.8 L 1.1,12.55 3.6,7.15 H 6.2 L 9.85,9.55 13.1,7.4 h 5.1 V 5.9 L 6.85,0.4 H 2.2 L -5.55,-3.1 -7.8,-5.35 v -4.85 l -5.1,-3.4 -5.25,2.65" />
    </g>
    <g
       id="hitachi">
      <path
         d="m 381.65,197.42 v 5.5 l -1.35,1.1 v 5.75 l 8.55,14.85 -10.05,-4.85 h -4.65 l -7.75,-3.5 -2.25,-2.25 v -4.85 l -5.1,-3.4 7.5,-4.25 2.25,0.25 2.75,-3.6 v -14.9 h -0.75 v -2.05 l 2.75,2.3 h 4 l 3.1,-2.35 h 2.9 l 3.75,2.6 v 2 c -2.93333,3.9 -4.81667,7.78333 -5.65,11.65"
         id="hitachipath" />
    </g>
    <g
       id="kasumigaura">
      <path
         d="m 378.65,210.77 4,6.5 0.15,2 -1.5,-1.25 -2.65,-4.5 v -2.75 m 0.4,6.9 -2.9,-5.65 -3.1,-1.75 -0.05,1.15 1.4,1.25 -1.35,1.6 -3.15,-1.75 v 1.4 l 5.9,2.85 3.25,0.9"
         id="kasumigaurapath" />
    </g>
    <g
       id="omi">
      <path
         id="omipath"
         d="m 247.69,231.8812 -9.85,7.35 h -2.15 v 1.25 l 2,2.15 v 7.1 h -1.25 v 6 l 1.15,2.9 4.85,2.6 h 1 l 1,-2.1 h 6.5 l 4.75,-7 v -5.25 l -1.75,-3.5 1.9,-3.15 v -3.85 l -1.55,-2.45 -1.6,-0.05 -0.15,-2.6 -1.7,-2.65 h -3.15 v 3.25" />
    </g>
    <g
       id="biwako">
      <path
         id="biwakopath"
         d="m 247.94,237.2312 2.9,4.25 v 2 l -3.25,1.5 -3.65,3 v 1.4 h -2.6 l -2.5,5.5 v -4.25 l 1.25,-2.4 v -2 l 3.5,-3.85 0.1,-4.25 4.25,-2.75 v 1.85" />
    </g>
    <g
       id="mino"
       transform="translate(271.779,233.3073)">
      <path
         id="path23942"
         d="m 0.25,-13.45 -4,-4 h -2.4 v 2.5 l 2.65,3 v 1.85 L -6,-8.45 h -12 l -2.95,3.75 1.7,2.65 0.15,2.6 1.6,0.05 1.55,2.45 V 6.9 l -1.9,3.15 1.75,3.5 1.75,-1.9 h 2.15 l 1.35,1.4 v 2.85 h 1.15 l 1.3,1.55 -0.05,-5.15 1.6,-1.15 V 9.3 L -2.6,7.55 h 4.9 v 3.25 h 7 l 5.6,2.6 3.6,-2.85 L 20,8.9 21,5.8 V 1.4 h -2.4 l -1.25,-1.85 v -3.9 l -2.9,-2 -6.2,3 h -3.9 l -1.6,-1.35 2.6,-2.65 v -4.6 l -1.1,-1.5 h -4" />
    </g>
    <g
       id="hida"
       transform="translate(278.744,215.66)">
      <path
         id="path24830"
         d="m 12.35,-8.35 v -3.9 h -2 L 7,-14.25 H -0.35 L -4,-10.6 -5.25,-7.75 h -1.9 v -2.6 h -2.5 l -1.75,1.1 0.65,0.5 v 3.15 l -2.3,3.85 v 1.9 h 2.4 l 4,4 h 4 l 1.1,1.5 v 4.6 l -2.6,2.65 1.6,1.35 h 3.9 l 6.2,-3 -2.85,-2 v -1.1 l 2,-2.4 H 9.2 L 13.1,0 10.5,-3.6 12.35,-8.35" />
    </g>
    <g
       id="shinano"
       transform="translate(304.2709,213.239)">
      <path
         id="path25718"
         d="m 12.3,-34 -5.65,6.9 h -6.5 l -1.5,-2.25 h -5 v 3.1 l -1.95,2.15 v 6.25 l -4.9,8.1 v 3.9 l -1.85,4.75 2.6,3.6 -3.9,5.75 h -2.5 l -2,2.4 v 1.1 l 5.75,4 v 3.9 l 1.25,1.85 h 2.4 v 4.4 l -1,3.1 -1.5,1.65 v 3.25 h 3.65 v -1.4 h 2.6 l 1.25,1.5 8.9,-6.5 2.6,-10.25 v -5.5 l 1.5,-3 H 8.4 l 1.5,-3.6 h 1.15 l 2.35,2.6 h 3.9 v 1.5 h 1.85 L 20.9,7.4 V 4.9 L 18.4,3 V 1 l -1,-1 v -5.75 l 1.4,-1 V -8.6 l -1.65,-2.5 h -4.6 l -1.9,-2.25 v -2.5 l 1.4,-2 2.75,-2.25 v -1.65 h 2.6 L 19.55,-23 v -1.35 h -1 v -3.9 l -1.5,-1.6 v -2.9 L 15.15,-34 H 12.3" />
    </g>
    <g
       id="shimotsuke"
       transform="translate(357.612,190.967)">
      <path
         id="path26606"
         d="m 8.25,-16.2 c 1.2333333,0.566667 2.45,1.116667 3.65,1.65 l 1.25,2.75 v 4.1 H 13.9 V 7.2 L 11.15,10.8 8.9,10.55 -3.85,17.45 -6.5,15.7 h -4.25 l -2.5,-2.5 v -2.65 l 2.4,-4.6 v -1.5 l -2.9,-1 V -2.7 l 1.5,-1.1 -1.6,-1 V -7.95 L -2.5,-14.3 h 1.4 l 3,-3.15 H 4 l 4.25,1.25" />
    </g>
    <g
       id="mutsu"
       transform="translate(360.6508,164.906)">
      <path
         d="m 382.8125,8.75 v 3.84375 l -2,2.65625 v 3.34375 L 379.0625,21 v 4.09375 h 4.25 l 4.625,-1.25 2.75,-3.84375 2,2 0.15625,8.0625 -3.125,5.75 -1.59375,-2.21875 -2.46875,0.0625 L 385.5,32.09375 382.9375,29.75 381,31.875 V 34.5 l 1.1875,-0.09375 V 35.75 l -1.90625,1.90625 -1.8125,-0.03125 c -1.21526,-3.464602 -2.23423,-7.323913 -2.625,-12.4375 l -2.34375,-2.625 -1.5,2.34375 -2.0625,0.03125 -3.65625,-4.53125 0.15625,4.96875 -1.65625,1.5625 2.5625,3.90625 -2.1875,7.25 -3.625,2.46875 -4.3125,0.03125 0.0937,2.09375 -3.09375,2.46875 L 354.25,47 l 2.78125,2.65625 0.0312,3.46875 5.21875,0.03125 1.5,-1.4375 4.6875,-0.09375 1.75,1.5625 5.375,-0.09375 0.34375,-0.25 -0.34375,0.28125 2.25,1.75 1.25,5.09375 v 4.75 l 2.09375,5.5 h 1.59375 V 70.375 l 0.0625,-0.03125 v 10.875 l -3.40625,6.75 v 6.25 l 2.40625,3.25 v 9.59375 l -4.125,4.59375 1.5,6.25 -1.375,3 v 2.90625 l 1.125,1.25 v 1.09375 l -3.75,8.75 0.375,5.0625 v 0 l -1.09375,1.125 h -2 l -1.125,1.25 v 4.5 h -0.0312 l -3.15625,5.25 -1.34375,1.25 h -2.90625 l -6.875,-2.125 h -3.71875 l -3.40625,4.625 v 4.5 h -4.75 l -1.5,1.5 h -3.25 l -1.25,0.8125 v 5.0625 l -1.25,0.25 v 4.5 h 1.25 l 1.40625,5.125 v 4.375 l 3.15625,1 11.34375,-6.375 H 356.5 l 3,-3.125 h 2.09375 l 4.25,1.25 1.8125,0.78125 h 0.0312 l 1.84375,0.84375 1.25,2.75 v 2.0625 l 2.75,2.28125 h 4 l 3.09375,-2.34375 h 2.90625 l 3.75,2.59375 -0.0312,-3.34375 h 3.625 v -6.25 l 2,-4.90625 v -10.75 l -1,-4.59375 -3.25,-9.90625 v -5.5 l -0.0312,-0.0312 2.125,-5.25 2.09375,-2.25 v -3 h 3.15625 v -2.09375 h 4.5 l 3.375,3.09375 v 2.5 l 1.75,-1.25 h 1.75 l -3,-4.5 v -3.59375 h 1.375 v -1 l -1.125,-1.15625 v -2.59375 h -1.75 v -1.40625 l 2,-1.34375 v -3.25 l 3.125,-3 v -3.40625 l 1.125,-1.34375 h 2 l 2.875,-1.5 v -3.25 l 2.625,-2.9375 -1.15625,-1.25 V 92.9688 l 1.75,-1.25 h -2.25 l 1.5,-4 h 1.25 v -2 l 1.5,-1.75 V 81.875 l -1.5,-1.90625 h -2.34375 v -2.75 h 1.5 V 71.375 l -1.65625,-1.90625 v -3.25 h -1.75 l -1.84375,-1.75 v -2 h 1 V 60.875 l -2,-1.40625 v -3.25 l -5.15625,-6.59375 -0.0312,0.0625 -2.3125,-2.65625 h -2.25 l -3.375,-7 -0.0312,-3.75 -1.125,-3.71875 -0.15625,-6 1.25,-1.5625 v -7.65625 h 0.90625 v -4.25 h -1.375 l -2.5,2.40625 h -3.875 l -1.375,-2.5 -3.75,-1.65625 z"
         transform="translate(-360.6508,-164.906)"
         id="path27494" />
    </g>
    <g
       id="g28380"
       transform="translate(380.289,161.045)" />
    <g
       id="dewa"
       transform="translate(363.357,128.897)">
      <path
         d="m 363.96875,51.59375 -1.40625,1.59375 h -5.59375 l 2.09375,2.25 v 7.5 L 355.09375,70 h -4.125 v 3.4375 l 1.59375,1.40625 h 1.90625 v -1.5 h 3.75 l 1.59375,2.09375 1.15625,7.15625 v 3.59375 l -1.90625,7.65625 -2.84375,2.5 v 6.5 l -1.0625,4.34375 -1,5.15625 -6.59375,7.75 v 2.59375 l 5.84375,3.40625 v 3.84375 h 1.75 l 3,3.65625 -2.25,1.75 h -2.5 l -1.75,1.84375 v 5.90625 l -1.75,4.09375 3.40625,4 H 357 l 6.90625,2.15625 h 2.90625 l 1.34375,-1.25 3.15625,-5.25 v -4.5 l 1.09375,-1.25 h 2 L 375.5625,140 l -0.40625,-5.0625 3.75,-8.75 v -1.09375 l -1.09375,-1.25 v -2.90625 l 1.34375,-3 -1.5,-6.25 4.15625,-4.59375 V 97.4375 l -2.40625,-3.25 v -6.25 l 3.40625,-6.75 v -11 h -1.65625 l -2.09375,-5.5 v -4.75 l -1.25,-5.09375 -2.25,-1.75 h -5.5 l -1.25,-1.5 z"
         transform="translate(-363.357,-128.897)"
         id="path29270" />
    </g>
    <g
       id="g30156"
       transform="translate(394.559,119.867)" />
    <g
       id="g31044"
       transform="translate(366.857,81.88589)" />
    <g
       id="g32826"
       transform="translate(397.398,81.371)" />
    <g
       id="g31932"
       transform="translate(379.851,39.409)">
      <g
         id="g36333"
         transform="translate(6.451983,6.273569)"
         >
        <path
           id="path36339"
           d="" />
      </g>
    </g>
    <g
       id="ezochi"
       transform="translate(414.6077,-48.52341)">
      <path
         id="path2340"
         d="m -31.79215,28.626866 15.619932,-9.147177 10.9256333,2.250865 5.26930522,3.703129 5.04448568,6.952741 c 4.0365624,2.076953 8.0731248,4.022523 12.1096878,5.875021 4.036562,1.852498 8.073124,3.611925 12.109687,5.316592 1.940895,-0.532278 2.905138,-2.773695 3.523207,-5.62092 0.618068,-2.847224 0.889962,-6.300255 1.446156,-9.255759 2.033495,-3.38884 3.914048,-6.739444 6.516021,-10.270403 2.601974,-3.530959 5.925368,-7.242274 10.844544,-11.3525336 l 19.217755,2.6266714 -0.59948,-6.8513223 5.597138,3.4218246 c 2.1864,-4.0539171 4.022662,-8.4190674 12.739943,-6.66775673 3.05937,-3.22547127 5.960659,-6.52998277 7.546992,-10.49197237 -2.712781,0.108846 -5.425561,-0.390007 -8.138342,4.7601815 L 83.783341,-6.6543761 78.989483,-23.301326 c 0,0 -1.522482,-2.796003 -0.341693,-6.147851 0.822792,-2.335617 4.25611,-4.941126 4.97646,-7.058593 1.754124,-5.156247 2.38173,-7.418543 1.239642,-8.177357 -1.355064,-0.900317 -3.24543,3.643356 -6.523823,8.014892 -2.546269,3.395295 -6.016537,7.11756 -8.487286,7.298399 C 63.377167,-29.63009 50.699845,-33.325773 50.127535,-32.467308 38.855757,-38.517029 29.350978,-46.081321 21.150558,-54.763634 12.950138,-63.445948 6.0540772,-73.246284 -2.6236497e-4,-83.768095 L -5.5839162,-85.012413 l -1.3253497,5.068969 -7.5213291,5.281293 c 1.252709,2.177136 2.473701,4.372112 3.495682,6.679032 1.0219822,2.30692 1.8449538,4.725783 2.3016219,7.350692 0.456668,2.624909 0.5470325,5.455863 0.1038,8.586966 -0.4432325,3.131103 -1.4200619,6.562354 -3.0977819,10.387856 l -1.159004,3.771329 c 0.895501,1.779404 1.182522,3.558808 1.099464,5.338212 -0.08306,1.779403 -0.536198,3.558807 -1.121017,5.338211 l -6.368617,5.965934 c 0.647146,2.741507 1.173005,5.483014 1.329113,8.224521 0.156108,2.741507 -0.05753,5.4830137 -0.889387,8.2245206 l -4.465287,1.8529552 c -4.116907,-0.037704 -11.315254,-0.4462322 -15.244612,-3.9716347 -3.878736,-3.4799841 -9.075045,-1.19705 -9.086631,4.2390068 l 2.570951,8.6352323 c -3.61687,3.8409529 -6.368394,5.6627668 -8.870752,6.9031918 -2.502358,1.240425 -4.755549,1.89946 -7.375752,3.414857 l -0.951473,14.915658 c 4.678772,6.265805 6.402108,10.167261 6.770374,12.984661 0.368266,2.8174 -0.618539,4.550744 -1.360048,6.480324 l -1.949549,6.945443 c 3.494295,4.652122 6.26023,6.572897 8.278624,5.690392 2.018394,-0.882506 3.289247,-4.56829 3.793377,-11.129287 l 4.616757,-4.279419 3.215097,3.569881 8.006293,1.870001 4.642306,-6.259633 -5.985568,-3.337428 -4.388144,-7.592391 -9.340414,-1.789266 -3.295071,-3.758083 4.521729,-8.210051 9.988832,1.330579 z"
         />
      <g
         id="g2342"
         transform="translate(6.451983,6.273569)">
        <path
           id="path2346"
           d="" />
      </g>
    </g>
    <g
       id="kunashiri"
       transform="translate(536.8361,-40.79037)">
      <path
         id="path3241"
         d="m -15.875962,-45.235752 6.2413465,-9.059616 7.8493008,0.318007 c 1.10701376,3.429518 6.6383066,1.042864 4.6836538,4.894668 -1.457397,2.871921 -5.7266721,0.619116 -10.8739511,4.894668 -1.0627656,3.534652 -3.542579,4.133418 -5.940868,4.614622 -2.317443,0.464982 -1.678906,3.074328 -3.393155,4.346495 -1.714249,1.272166 -5.341539,2.17779 -6.942414,3.336582 -1.600874,1.158792 -3.157579,2.273416 -4.695154,3.368909 l -4.468007,-0.560664 1.325612,-3.757343 6.167308,-4.884353 c 2.361701,1.429167 6.172166,-2.784101 6.708075,-5.446566 0.446762,-2.219575 1.663865,0.09248 3.338253,-2.065409 z" />
    </g>
    <g
       id="shikotan">
      <path
         d="m 540.36075,-70.171584 c 0.81689,-0.241239 2.43888,-0.991123 3.76627,-0.991123 0.96996,0 1.01554,1.088804 1.18935,1.784023 0.34101,1.364072 1.18934,0.61802 1.18934,2.378697 0,0.906995 -1.76168,0.792899 -2.57692,0.792899 -1.75856,1.275362 -2.57681,3.955089 -6.14497,0.991124 -0.24161,-0.966461 -0.19822,-1.9467 -0.19822,-2.973372 0,-1.165945 1.77995,-1.484646 2.77515,-1.982248 z"
         id="shikotanpath" />
    </g>
    <path
       id="edo"
       d="m 336.7575,237.198 h 2.80029 v 4.65 h -2.80029 z"
       style="fill:#00ff00;stroke-width:0.608158" />
  </g>
</svg>
