<?xml version="1.0" encoding="UTF-8" standalone="no"?>
<svg
   width="120.80012"
   height="141.83804"
>
  <defs
     id="defs2474">
    <linearGradient
       id="linearGradient4221">
      <stop
         style="stop-color:#54595e;stop-opacity:1;"
         offset="0"
         id="stop4223" />
      <stop
         id="stop4245"
         offset="0.5"
         style="stop-color:#494d52;stop-opacity:0.49803922;" />
      <stop
         style="stop-color:#000000;stop-opacity:0;"
         offset="1"
         id="stop4225" />
    </linearGradient>
    <linearGradient
       id="linearGradient4197">
      <stop
         style="stop-color:#45474d;stop-opacity:1;"
         offset="0"
         id="stop4199" />
      <stop
         style="stop-color:#000000;stop-opacity:0;"
         offset="1"
         id="stop4201" />
    </linearGradient>
    <linearGradient
       xlink:href="#linearGradient4221"
       id="linearGradient4227"
       x1="434.53558"
       y1="461.97931"
       x2="272.99606"
       y2="698.34991"
       gradientUnits="userSpaceOnUse" />
    <linearGradient
       xlink:href="#linearGradient4221"
       id="linearGradient4229"
       gradientUnits="userSpaceOnUse"
       x1="260.78934"
       y1="615.52252"
       x2="263.7742"
       y2="715.52252" />
    <linearGradient
       xlink:href="#linearGradient4221"
       id="linearGradient4231"
       gradientUnits="userSpaceOnUse"
       x1="260.78934"
       y1="615.52252"
       x2="263.7742"
       y2="715.52252" />
    <linearGradient
       xlink:href="#linearGradient4221"
       id="linearGradient4233"
       gradientUnits="userSpaceOnUse"
       x1="260.78934"
       y1="615.52252"
       x2="263.7742"
       y2="715.52252" />
  </defs>
  <g
     transform="translate(-63.903966,-500.32274)">
    <g
       id="g2569"
       style="fill:url(#linearGradient4227);fill-opacity:1"
       transform="translate(-61.328318,-51.709303)">
      <path
         id="path2567"
         d="m 206.57778,672.0106 c -7.75847,0.22317 -15.93293,-0.35136 -23.00033,-0.35136 -12.32037,0 -22.99419,-1.01811 -32.73581,-9.48289 -12.41584,-10.82465 -18.62374,-24.93261 -18.62374,-42.32394 0,-17.44251 6.2079,-31.57613 18.62374,-42.40087 9.74162,-8.4647 26.59127,-12.7013 30.97166,-8.78849 l 25.18607,22.49763 c -8.99546,-1.47101 -16.71367,0.1424 -21.9187,0.14232 -6.58999,8e-5 -12.32037,2.1291 -17.19114,6.38706 -6.1602,5.38676 -9.24028,12.7742 -9.24025,22.16235 -3e-5,9.33696 3.08005,16.69876 9.24025,22.0854 4.87077,4.25808 10.60115,6.3871 17.19114,6.38707 5.20503,3e-5 14.29932,0.2191 21.13997,-0.19776 z"
         style="font-style:normal;font-variant:normal;font-weight:bold;font-stretch:normal;font-size:144px;line-height:125%;font-family:Aharoni;-inkscape-font-specification:'Aharoni Bold';text-align:start;writing-mode:lr-tb;text-anchor:start;fill:url(#linearGradient4229);fill-opacity:1;stroke:none;stroke-width:1px;stroke-linecap:butt;stroke-linejoin:miter;stroke-opacity:1" />
      <path
         id="path2565"
         d="m 241.82271,573.14219 c -3e-5,4.00162 -1.27743,7.37471 -3.83219,10.11926 -2.55483,2.74473 -5.6946,4.11706 -9.41931,4.11697 -3.67702,9e-5 -6.79292,-1.38507 -9.3477,-4.15545 -2.5548,-2.77019 -3.83219,-6.13045 -3.83218,-10.08078 -1e-5,-3.95014 1.27738,-7.29758 3.83218,-10.04233 2.55478,-2.74453 5.67068,-4.11684 9.3477,-4.11695 3.67696,1.1e-4 6.80479,1.37242 9.38349,4.11695 2.57864,2.74475 3.86798,6.09219 3.86801,10.04233 z"
         style="font-style:normal;font-variant:normal;font-weight:bold;font-stretch:normal;font-size:144px;line-height:125%;font-family:Aharoni;-inkscape-font-specification:'Aharoni Bold';text-align:start;writing-mode:lr-tb;text-anchor:start;fill:url(#linearGradient4231);fill-opacity:1;stroke:none;stroke-width:1px;stroke-linecap:butt;stroke-linejoin:miter;stroke-opacity:1" />
      <path
         id="path2563"
         d="m 240.31849,672.02629 h -23.49457 v -71.41202 l 23.49457,18.76178 z"
         style="font-style:normal;font-variant:normal;font-weight:bold;font-stretch:normal;font-size:144px;line-height:125%;font-family:Aharoni;-inkscape-font-specification:'Aharoni Bold';text-align:start;writing-mode:lr-tb;text-anchor:start;fill:url(#linearGradient4233);fill-opacity:1;stroke:none;stroke-width:1px;stroke-linecap:butt;stroke-linejoin:miter;stroke-opacity:1" />
    </g>
  </g>
</svg>
